<svg xmlns="http://www.w3.org/2000/svg" viewBox="0 0 512 512" id="smoothies">
  <defs>
    <clipPath id="a">
      <rect width="342.11" height="434.82" x="84.94" y="46.18" fill="#ffe350" rx="33.14"></rect>
    </clipPath>
    <clipPath id="b">
      <path fill="none" d="M251.14 269.4a5.58 5.58 0 0 1-1-.08 5.81 5.81 0 0 1-4.74-6.72l36.46-211.72a23.95 23.95 0 0 1 28.9-19.27L389 49.42a5.81 5.81 0 1 1-2.58 11.34L308.18 43a12.31 12.31 0 0 0-14.86 9.91l-36.45 211.66a5.82 5.82 0 0 1-5.73 4.83Z"></path>
    </clipPath>
    <clipPath id="c">
      <path fill="none" d="M188.05 192.8v188.6c0 24 17.68 43.43 39.49 43.43h64.93c21.8 0 39.48-19.44 39.48-43.43V192.8c0-.83 0-1.65-.06-2.47H188.12c-.04.82-.07 1.67-.07 2.47Z"></path>
    </clipPath>
  </defs>
  <rect width="342.11" height="434.82" x="84.94" y="46.18" fill="#ffe350" rx="33.14"></rect>
  <g clip-path="url(#a)">
    <rect width="342.11" height="434.82" x="84.94" y="46.18" fill="#ffed7a" rx="33.14"></rect>
    <path fill="#ffe350" d="M456.16 265.09s-79.76-32.28-185.75 38.51-164.66 111.21-217 118.74-31.72 96.11-31.72 96.11 210.76 28.76 225.88 24S392.73 506 392.73 506s70.35-15.07 70.06-21-6.63-219.91-6.63-219.91Z"></path>
  </g>
  <path fill="#ffb33e" d="M136.16 143.8c0 1.21 5.09.7 8.59 3.79 4.93 4.35 3.48 13 4.59 13.07s.19-8.64 5.45-13.07c3.49-2.94 8-2.6 8-3.79s-5.41-.65-9.24-4.09c-5.38-4.83-4.55-14-5.3-14-.42 0-.09 2.89-1.14 6.86-.59 2.24-1.35 5.11-3.55 7.31-3.2 3.23-7.4 2.83-7.4 3.92zm225 181.81c0 1.21 5.1.7 8.6 3.79 4.92 4.35 3.48 13 4.59 13.07s.19-8.64 5.45-13.07c3.48-2.94 8-2.59 8-3.79s-5.41-.65-9.23-4.09c-5.38-4.83-4.55-14-5.31-13.94-.42 0-.08 2.88-1.14 6.85-.59 2.24-1.35 5.12-3.54 7.31-3.21 3.18-7.41 2.78-7.42 3.87zM335.7 102.66c0 1.2 5.09.69 8.59 3.78 4.93 4.35 3.48 13 4.59 13.07s.19-8.64 5.45-13.07c3.49-2.94 8-2.59 8-3.78s-5.41-.66-9.24-4.1c-5.38-4.83-4.55-14-5.3-13.94-.43 0-.09 2.88-1.14 6.86-.6 2.23-1.36 5.11-3.55 7.3-3.2 3.22-7.4 2.78-7.4 3.88z"></path>
  <circle cx="144.99" cy="291" r="13.15" fill="#ff9a15"></circle>
  <circle cx="227.57" cy="84.62" r="8.81" fill="#ff9a15"></circle>
  <circle cx="378.97" cy="221" r="8.81" fill="#ff9a15"></circle>
  <circle cx="369.48" cy="392.28" r="15.98" fill="#ff9a15"></circle>
  <path fill="#fff" d="M180.73 186.94v195.92c0 24.91 19.48 45.11 43.51 45.11h71.53c24 0 43.51-20.2 43.51-45.11V186.94c0-.87 0-1.72-.07-2.58H180.8c-.05.86-.07 1.71-.07 2.58Z"></path>
  <rect width="164.55" height="147.5" x="178.4" y="102.06" fill="#fff" rx="69.77"></rect>
  <g clip-path="url(#b)">
    <path fill="#c3def4" d="M251.14 269.4a5.58 5.58 0 0 1-1-.08 5.81 5.81 0 0 1-4.74-6.72l36.46-211.72a23.95 23.95 0 0 1 28.9-19.27L389 49.42a5.81 5.81 0 1 1-2.58 11.34L308.18 43a12.31 12.31 0 0 0-14.86 9.91l-36.45 211.66a5.82 5.82 0 0 1-5.73 4.83Z"></path>
    <rect width="164.55" height="147.5" x="178.4" y="102.06" fill="#b3cfe2" rx="69.77"></rect>
  </g>
  <g clip-path="url(#c)">
    <path fill="#f25930" d="M188.05 192.8v188.6c0 24 17.68 43.43 39.49 43.43h64.93c21.8 0 39.48-19.44 39.48-43.43V192.8c0-.83 0-1.65-.06-2.47H188.12c-.04.82-.07 1.67-.07 2.47Z"></path>
    <path fill="#ef4220" d="M148.09 269.08s57.79-9.86 81.75 8.46 27.49 43.69 51.45 33.83 28.19-61.32 68.71-71.53 43.34 0 43.34 0l-7 81.39 3.52 62s-49.62 53.56-50.53 54.26-127.06 10.57-134.81 11.28-96.14-48.5-96.14-48.5Z"></path>
  </g>
  <path fill="#f4f4f4" d="M339 203.37H183.89a9.45 9.45 0 0 1-9.07-8.15l-.82-6.61a7.28 7.28 0 0 1 7.26-8.5h160.41a7.28 7.28 0 0 1 7.26 8.5l-.82 6.61a9.44 9.44 0 0 1-9.11 8.15Z"></path>
  <circle cx="279.79" cy="367.04" r="18.32" fill="#ce2813"></circle>
  <circle cx="225.25" cy="340.25" r="20.07" fill="#ce2813"></circle>
  <circle cx="272.25" cy="279.96" r="15.38" fill="#ce2813"></circle>
  <path fill="none" stroke="#fff" stroke-linecap="round" stroke-linejoin="round" stroke-width="4" d="M319.42 229.81v144.98M268.6 413.55h28.23A22.59 22.59 0 0 0 319.42 391v-5.6"></path>
  <path fill="#ce2813" d="M150.31 383.63s-16.15 19.43-6.68 36 51.55 27.43 69.58 16.32-.77-47.78-13-62.71-42.92-1.64-49.9 10.39Z"></path>
  <path fill="#bc1f13" d="M143.63 419.64c9.47 16.58 51.55 27.43 69.58 16.32 9.06-5.58 8.81-17.63 4.78-30.13s2.57 17.11-3.59 22.23-25.08 12.29-49.26-.75-18.58-38.17-18.58-38.17c-4.09 6.95-9.29 19.37-2.93 30.5Z"></path>
  <path fill="#95c21d" d="M139.12 390.68s-8.08 6.19-7.31 11.87 6.64 7.18 10.34 3.79 5.58-11.53 5.58-11.53 5.24 5.76 10.46.6-.62-13.35-.62-13.35 15-3.43 14.55-10.86-14.39-7-18-.87l-3.61 6.11s-16.8-1.71-11.39 14.24Z"></path>
  <path fill="#f25930" d="M163.09 401.82c-3.34 2.29.71 7.13 4 4.84s-.67-7.13-4-4.84zm36.07 10.49c-3.34 2.29.71 7.13 4 4.84s-.67-7.15-4-4.84zm-14.09-32.65c-3.35 2.3.71 7.14 4 4.85s-.68-7.13-4-4.85zm-1.94 18.65c-3.34 2.3.71 7.13 4 4.85s-.67-7.16-4-4.85zm15.54-5.56c-2.23 1.53.47 4.76 2.69 3.23s-.48-4.75-2.69-3.23zm-20.78 23.9c-2.23 1.53.47 4.75 2.69 3.23s-.47-4.76-2.69-3.23z"></path>
  <path fill="#ce2813" d="M275.32 407.42s-13.83-21.15-32.46-17-41.37 41.21-36.05 61.7 45.89 13.31 63.74 6.06 14.22-40.55 4.77-50.76Z"></path>
  <path fill="#bc1f13" d="M242.86 390.45c-18.63 4.18-41.37 41.21-36.05 61.7 2.67 10.3 14.26 13.61 27.39 13.43s-17.11-2.57-20.19-10-4.38-27.59 15.2-46.86 42-6.54 42-6.54c-5.5-5.92-15.83-14.53-28.35-11.73Z"></path>
  <path fill="#95c21d" d="M271.87 394.65s-3.54-9.54-9.19-10.48-8.82 4.25-6.67 8.77 9.38 8.73 9.38 8.73-7.05 3.32-3.64 9.82 12.93 3.33 12.93 3.33-1.11 15.3 6.1 17.11 10.92-11.71 6.14-17l-4.79-5.25s6.58-15.5-10.26-15.03Z"></path>
  <path fill="#f25930" d="M254.18 414.29c-1.22-3.87-7-1.42-5.82 2.44s7.02 1.42 5.82-2.44zm-20.63 31.39c-1.21-3.87-7-1.42-5.82 2.44s7.03 1.41 5.82-2.44zm35.34-3.87c-1.21-3.87-7-1.42-5.82 2.43s7.03 1.42 5.82-2.43zm-17.25-7.34c-1.21-3.87-7-1.41-5.82 2.44s7.03 1.42 5.82-2.44zm.74 16.53c-.81-2.58-4.68-.95-3.88 1.62s4.69.91 3.88-1.62zm-16.73-26.92c-.81-2.58-4.68-.95-3.88 1.62s4.69.95 3.88-1.62z"></path>
</svg>
